M48
;DRILL file {KiCad 5.0.2+dfsg1-1} date mar. 22 sept. 2020 13:00:30 CEST
;FORMAT={-:-/ absolute / metric / decimal}
FMAT,2
METRIC,TZ
T1C0.800
T2C1.199
T3C1.300
%
G90
G05
T1
X145.542Y-103.886
X153.162Y-103.886
X145.288Y-89.408
X152.908Y-89.408
X139.446Y-87.456
X139.446Y-92.456
X137.922Y-97.79
X137.922Y-102.79
X169.334Y-97.376
X169.334Y-104.996
X145.288Y-92.456
X145.288Y-100.076
X147.828Y-92.456
X147.828Y-100.076
X150.368Y-92.456
X150.368Y-100.076
X152.908Y-92.456
X152.908Y-100.076
X141.478Y-96.266
X141.478Y-103.886
X145.288Y-86.36
X152.908Y-86.36
T2
X173.334Y-91.186
X173.334Y-98.806
X132.334Y-87.376
X132.334Y-94.996
X132.334Y-102.616
T3
X155.956Y-98.886
X155.956Y-103.886
X165.956Y-101.386
X155.956Y-88.218
X155.956Y-93.218
X165.956Y-90.718
T0
M30
