G04 #@! TF.GenerationSoftware,KiCad,Pcbnew,5.0.2+dfsg1-1*
G04 #@! TF.CreationDate,2020-09-22T12:11:50+02:00*
G04 #@! TF.ProjectId,opAmp_textileSensor,6f70416d-705f-4746-9578-74696c655365,rev?*
G04 #@! TF.SameCoordinates,Original*
G04 #@! TF.FileFunction,Copper,L2,Bot*
G04 #@! TF.FilePolarity,Positive*
%FSLAX45Y45*%
G04 Gerber Fmt 4.5, Leading zero omitted, Abs format (unit mm)*
G04 Created by KiCad (PCBNEW 5.0.2+dfsg1-1) date mar. 22 sept. 2020 12:11:50 CEST*
%MOMM*%
%LPD*%
G01*
G04 APERTURE LIST*
G04 #@! TA.AperFunction,NonConductor*
%ADD10C,0.150000*%
G04 #@! TD*
G04 #@! TA.AperFunction,ComponentPad*
%ADD11O,4.000000X4.000000*%
G04 #@! TD*
G04 #@! TA.AperFunction,ComponentPad*
%ADD12O,1.600000X1.600000*%
G04 #@! TD*
G04 #@! TA.AperFunction,ComponentPad*
%ADD13C,1.600000*%
G04 #@! TD*
G04 #@! TA.AperFunction,ComponentPad*
%ADD14C,2.340000*%
G04 #@! TD*
G04 #@! TA.AperFunction,ComponentPad*
%ADD15R,1.600000X2.400000*%
G04 #@! TD*
G04 #@! TA.AperFunction,ComponentPad*
%ADD16O,1.600000X2.400000*%
G04 #@! TD*
G04 #@! TA.AperFunction,Conductor*
%ADD17C,1.000000*%
G04 #@! TD*
G04 #@! TA.AperFunction,Conductor*
%ADD18C,0.254000*%
G04 #@! TD*
G04 APERTURE END LIST*
D10*
X12852400Y-8255000D02*
X17703800Y-8255000D01*
X17703800Y-8255000D02*
X17703800Y-10744200D01*
X17703800Y-10744200D02*
X12852400Y-10744200D01*
X12852400Y-10744200D02*
X12852400Y-8255000D01*
D11*
G04 #@! TO.P,J2,1*
G04 #@! TO.N,VCC*
X17333400Y-9118600D03*
G04 #@! TO.P,J2,2*
G04 #@! TO.N,VOLTAGE_OUTPUT*
X17333400Y-9880600D03*
G04 #@! TD*
G04 #@! TO.P,J1,1*
G04 #@! TO.N,OUTPUT*
X13233400Y-10261600D03*
G04 #@! TO.P,J1,2*
G04 #@! TO.N,GND*
X13233400Y-9499600D03*
G04 #@! TO.P,J1,3*
G04 #@! TO.N,VCC*
X13233400Y-8737600D03*
G04 #@! TD*
D12*
G04 #@! TO.P,R5,2*
G04 #@! TO.N,Net-(R5-Pad2)*
X14147800Y-9626600D03*
D13*
G04 #@! TO.P,R5,1*
G04 #@! TO.N,Net-(C2-Pad2)*
X14147800Y-10388600D03*
G04 #@! TD*
G04 #@! TO.P,R4,1*
G04 #@! TO.N,Net-(R4-Pad1)*
X15316200Y-10388600D03*
D12*
G04 #@! TO.P,R4,2*
G04 #@! TO.N,Net-(C2-Pad2)*
X14554200Y-10388600D03*
G04 #@! TD*
G04 #@! TO.P,R3,2*
G04 #@! TO.N,GND*
X14528800Y-8636000D03*
D13*
G04 #@! TO.P,R3,1*
G04 #@! TO.N,Net-(R3-Pad1)*
X15290800Y-8636000D03*
G04 #@! TD*
D14*
G04 #@! TO.P,RV2,1*
G04 #@! TO.N,Net-(R4-Pad1)*
X15595600Y-10388600D03*
G04 #@! TO.P,RV2,2*
G04 #@! TO.N,OUTPUT*
X16595600Y-10138600D03*
G04 #@! TO.P,RV2,3*
G04 #@! TO.N,Net-(RV2-Pad3)*
X15595600Y-9888600D03*
G04 #@! TD*
D13*
G04 #@! TO.P,R1,1*
G04 #@! TO.N,VOLTAGE_OUTPUT*
X16933400Y-10499600D03*
D12*
G04 #@! TO.P,R1,2*
G04 #@! TO.N,GND*
X16933400Y-9737600D03*
G04 #@! TD*
D14*
G04 #@! TO.P,RV1,3*
G04 #@! TO.N,Net-(R3-Pad1)*
X15595600Y-8821800D03*
G04 #@! TO.P,RV1,2*
G04 #@! TO.N,Net-(RV1-Pad2)*
X16595600Y-9071800D03*
G04 #@! TO.P,RV1,1*
G04 #@! TO.N,Net-(R2-Pad2)*
X15595600Y-9321800D03*
G04 #@! TD*
D15*
G04 #@! TO.P,U1,1*
G04 #@! TO.N,OUTPUT*
X14528800Y-10007600D03*
D16*
G04 #@! TO.P,U1,5*
G04 #@! TO.N,Net-(RV1-Pad2)*
X15290800Y-9245600D03*
G04 #@! TO.P,U1,2*
G04 #@! TO.N,Net-(C2-Pad2)*
X14782800Y-10007600D03*
G04 #@! TO.P,U1,6*
G04 #@! TO.N,Net-(R5-Pad2)*
X15036800Y-9245600D03*
G04 #@! TO.P,U1,3*
G04 #@! TO.N,VOLTAGE_OUTPUT*
X15036800Y-10007600D03*
G04 #@! TO.P,U1,7*
G04 #@! TO.N,Net-(R5-Pad2)*
X14782800Y-9245600D03*
G04 #@! TO.P,U1,4*
G04 #@! TO.N,GND*
X15290800Y-10007600D03*
G04 #@! TO.P,U1,8*
G04 #@! TO.N,VCC*
X14528800Y-9245600D03*
G04 #@! TD*
D13*
G04 #@! TO.P,C1,1*
G04 #@! TO.N,VCC*
X13944600Y-9245600D03*
G04 #@! TO.P,C1,2*
G04 #@! TO.N,GND*
X13944600Y-8745600D03*
G04 #@! TD*
G04 #@! TO.P,C2,2*
G04 #@! TO.N,Net-(C2-Pad2)*
X13792200Y-10279000D03*
G04 #@! TO.P,C2,1*
G04 #@! TO.N,OUTPUT*
X13792200Y-9779000D03*
G04 #@! TD*
G04 #@! TO.P,R2,1*
G04 #@! TO.N,VCC*
X14528800Y-8940800D03*
D12*
G04 #@! TO.P,R2,2*
G04 #@! TO.N,Net-(R2-Pad2)*
X15290800Y-8940800D03*
G04 #@! TD*
D17*
G04 #@! TO.N,VOLTAGE_OUTPUT*
X17246600Y-9855200D02*
X17297400Y-9804400D01*
X17322800Y-9893200D02*
X17322800Y-9804400D01*
X15150601Y-10197601D02*
X15811001Y-10197601D01*
X16924000Y-10490200D02*
X16933400Y-10499600D01*
X15036800Y-10007600D02*
X15036800Y-10083800D01*
X15036800Y-10083800D02*
X15150601Y-10197601D01*
X15811001Y-10197601D02*
X16103600Y-10490200D01*
X16103600Y-10490200D02*
X16924000Y-10490200D01*
X16933400Y-10280600D02*
X17333400Y-9880600D01*
X16933400Y-10499600D02*
X16933400Y-10280600D01*
G04 #@! TO.N,OUTPUT*
X13233400Y-10261600D02*
X13309600Y-10261600D01*
X13309600Y-10261600D02*
X13792200Y-9779000D01*
X14528800Y-10007600D02*
X14020800Y-10007600D01*
X14020800Y-10007600D02*
X13792200Y-9779000D01*
X16595600Y-10138600D02*
X16158600Y-9701600D01*
X16158600Y-9701600D02*
X14794800Y-9701600D01*
X14794800Y-9701600D02*
X14528800Y-9967600D01*
X14528800Y-9967600D02*
X14528800Y-10007600D01*
G04 #@! TO.N,Net-(RV1-Pad2)*
X15417400Y-9524600D02*
X16158400Y-9524600D01*
X15290800Y-9245600D02*
X15290800Y-9398000D01*
X15290800Y-9398000D02*
X15417400Y-9524600D01*
X16595600Y-9087400D02*
X16595600Y-9071800D01*
X16158400Y-9524600D02*
X16595600Y-9087400D01*
G04 #@! TO.N,Net-(R5-Pad2)*
X14782800Y-9245600D02*
X15036800Y-9245600D01*
X14556400Y-9626600D02*
X14147800Y-9626600D01*
X14782800Y-9245600D02*
X14782800Y-9400200D01*
X14782800Y-9400200D02*
X14556400Y-9626600D01*
G04 #@! TO.N,VCC*
X14528800Y-9245600D02*
X14528800Y-9285600D01*
X13944600Y-9245600D02*
X13741400Y-9245600D01*
X13741400Y-9245600D02*
X13233400Y-8737600D01*
X14528800Y-9245600D02*
X14528800Y-8940800D01*
X16571400Y-8356600D02*
X17333400Y-9118600D01*
X14528800Y-8940800D02*
X14541500Y-8940800D01*
X15125700Y-8356600D02*
X16571400Y-8356600D01*
X14541500Y-8940800D02*
X15125700Y-8356600D01*
X14528800Y-9245600D02*
X13944600Y-9245600D01*
G04 #@! TO.N,Net-(R2-Pad2)*
X15367000Y-8940800D02*
X15595600Y-9169400D01*
X15595600Y-9169400D02*
X15595600Y-9347200D01*
G04 #@! TO.N,Net-(R3-Pad1)*
X15290800Y-8636000D02*
X15409800Y-8636000D01*
X15409800Y-8636000D02*
X15595600Y-8821800D01*
G04 #@! TO.N,Net-(R4-Pad1)*
X15316200Y-10388600D02*
X15595600Y-10388600D01*
G04 #@! TO.N,Net-(C2-Pad2)*
X14782800Y-10007600D02*
X14782800Y-10160000D01*
X14782800Y-10160000D02*
X14554200Y-10388600D01*
X14147800Y-10388600D02*
X14554200Y-10388600D01*
X13901800Y-10388600D02*
X14147800Y-10388600D01*
X13792200Y-10279000D02*
X13901800Y-10388600D01*
G04 #@! TD*
D18*
G04 #@! TO.N,GND*
G36*
X14661924Y-8659863D02*
X14655791Y-8648700D01*
X14541500Y-8648700D01*
X14541500Y-8763063D01*
X14552639Y-8769148D01*
X14524487Y-8797300D01*
X14500256Y-8797300D01*
X14447514Y-8819147D01*
X14407147Y-8859514D01*
X14385300Y-8912256D01*
X14385300Y-8969344D01*
X14407147Y-9022086D01*
X14415300Y-9030240D01*
X14415300Y-9117172D01*
X14405325Y-9132100D01*
X14034040Y-9132100D01*
X14025886Y-9123947D01*
X13973144Y-9102100D01*
X13916056Y-9102100D01*
X13863314Y-9123947D01*
X13855160Y-9132100D01*
X13788413Y-9132100D01*
X13502688Y-8846375D01*
X13861786Y-8846375D01*
X13869199Y-8870986D01*
X13922922Y-8890297D01*
X13979945Y-8887578D01*
X14020000Y-8870986D01*
X14027414Y-8846375D01*
X13944600Y-8763561D01*
X13861786Y-8846375D01*
X13502688Y-8846375D01*
X13484119Y-8827806D01*
X13502062Y-8737600D01*
X13499342Y-8723922D01*
X13799903Y-8723922D01*
X13802622Y-8780945D01*
X13819214Y-8821001D01*
X13843825Y-8828414D01*
X13926639Y-8745600D01*
X13962560Y-8745600D01*
X14045374Y-8828414D01*
X14069986Y-8821001D01*
X14089296Y-8767278D01*
X14086578Y-8710255D01*
X14070278Y-8670904D01*
X14389610Y-8670904D01*
X14405696Y-8709742D01*
X14443287Y-8751239D01*
X14493896Y-8775191D01*
X14516100Y-8763063D01*
X14516100Y-8648700D01*
X14401808Y-8648700D01*
X14389610Y-8670904D01*
X14070278Y-8670904D01*
X14069986Y-8670200D01*
X14045374Y-8662786D01*
X13962560Y-8745600D01*
X13926639Y-8745600D01*
X13843825Y-8662786D01*
X13819214Y-8670200D01*
X13799903Y-8723922D01*
X13499342Y-8723922D01*
X13483608Y-8644826D01*
X13861786Y-8644826D01*
X13944600Y-8727640D01*
X14027414Y-8644826D01*
X14020000Y-8620214D01*
X13966814Y-8601096D01*
X14389610Y-8601096D01*
X14401808Y-8623300D01*
X14516100Y-8623300D01*
X14516100Y-8508937D01*
X14541500Y-8508937D01*
X14541500Y-8623300D01*
X14655791Y-8623300D01*
X14667990Y-8601096D01*
X14651904Y-8562258D01*
X14614313Y-8520761D01*
X14563704Y-8496809D01*
X14541500Y-8508937D01*
X14516100Y-8508937D01*
X14493896Y-8496809D01*
X14443287Y-8520761D01*
X14405696Y-8562258D01*
X14389610Y-8601096D01*
X13966814Y-8601096D01*
X13966278Y-8600904D01*
X13909255Y-8603622D01*
X13869199Y-8620214D01*
X13861786Y-8644826D01*
X13483608Y-8644826D01*
X13481611Y-8634787D01*
X13423373Y-8547627D01*
X13336213Y-8489389D01*
X13259352Y-8474100D01*
X13207448Y-8474100D01*
X13130587Y-8489389D01*
X13043427Y-8547627D01*
X12985188Y-8634787D01*
X12964738Y-8737600D01*
X12985188Y-8840413D01*
X13043427Y-8927573D01*
X13130587Y-8985812D01*
X13207448Y-9001100D01*
X13259352Y-9001100D01*
X13323606Y-8988319D01*
X13653239Y-9317952D01*
X13659571Y-9327429D01*
X13695226Y-9351253D01*
X13697114Y-9352515D01*
X13741400Y-9361324D01*
X13752578Y-9359100D01*
X13855160Y-9359100D01*
X13863314Y-9367253D01*
X13916056Y-9389100D01*
X13973144Y-9389100D01*
X14025886Y-9367253D01*
X14034040Y-9359100D01*
X14405325Y-9359100D01*
X14425342Y-9389058D01*
X14472809Y-9420774D01*
X14528800Y-9431911D01*
X14584791Y-9420774D01*
X14632258Y-9389058D01*
X14655800Y-9353824D01*
X14660952Y-9361535D01*
X14509387Y-9513100D01*
X14236228Y-9513100D01*
X14203791Y-9491426D01*
X14161933Y-9483100D01*
X14133667Y-9483100D01*
X14091809Y-9491426D01*
X14044342Y-9523142D01*
X14012626Y-9570609D01*
X14001489Y-9626600D01*
X14012626Y-9682591D01*
X14044342Y-9730058D01*
X14091809Y-9761774D01*
X14133667Y-9770100D01*
X14161933Y-9770100D01*
X14203791Y-9761774D01*
X14236228Y-9740100D01*
X14545222Y-9740100D01*
X14556400Y-9742324D01*
X14567578Y-9740100D01*
X14600685Y-9733515D01*
X14605769Y-9730118D01*
X14513031Y-9822856D01*
X14448800Y-9822856D01*
X14424023Y-9827784D01*
X14403019Y-9841819D01*
X14388984Y-9862824D01*
X14384056Y-9887600D01*
X14384056Y-9894100D01*
X14067813Y-9894100D01*
X13935700Y-9761987D01*
X13935700Y-9750456D01*
X13913853Y-9697714D01*
X13873486Y-9657347D01*
X13820744Y-9635500D01*
X13763656Y-9635500D01*
X13710914Y-9657347D01*
X13670547Y-9697714D01*
X13648700Y-9750456D01*
X13648700Y-9761987D01*
X13372831Y-10037856D01*
X13336213Y-10013389D01*
X13259352Y-9998100D01*
X13207448Y-9998100D01*
X13130587Y-10013389D01*
X13043427Y-10071627D01*
X12985188Y-10158787D01*
X12964738Y-10261600D01*
X12985188Y-10364413D01*
X13043427Y-10451573D01*
X13130587Y-10509812D01*
X13207448Y-10525100D01*
X13259352Y-10525100D01*
X13336213Y-10509812D01*
X13423373Y-10451573D01*
X13481611Y-10364413D01*
X13502062Y-10261600D01*
X13496761Y-10234952D01*
X13792200Y-9939513D01*
X13932639Y-10079952D01*
X13938971Y-10089429D01*
X13976116Y-10114248D01*
X13976514Y-10114515D01*
X14020800Y-10123324D01*
X14031978Y-10121100D01*
X14384056Y-10121100D01*
X14384056Y-10127600D01*
X14388984Y-10152377D01*
X14403019Y-10173381D01*
X14424023Y-10187416D01*
X14448800Y-10192344D01*
X14589943Y-10192344D01*
X14536472Y-10245815D01*
X14498209Y-10253426D01*
X14465772Y-10275100D01*
X14237240Y-10275100D01*
X14229086Y-10266947D01*
X14176344Y-10245100D01*
X14119256Y-10245100D01*
X14066514Y-10266947D01*
X14058360Y-10275100D01*
X13948813Y-10275100D01*
X13935700Y-10261987D01*
X13935700Y-10250456D01*
X13913853Y-10197714D01*
X13873486Y-10157347D01*
X13820744Y-10135500D01*
X13763656Y-10135500D01*
X13710914Y-10157347D01*
X13670547Y-10197714D01*
X13648700Y-10250456D01*
X13648700Y-10307544D01*
X13670547Y-10360286D01*
X13710914Y-10400653D01*
X13763656Y-10422500D01*
X13775187Y-10422500D01*
X13813639Y-10460952D01*
X13819971Y-10470429D01*
X13850526Y-10490845D01*
X13857514Y-10495515D01*
X13901800Y-10504324D01*
X13912978Y-10502100D01*
X14058360Y-10502100D01*
X14066514Y-10510253D01*
X14119256Y-10532100D01*
X14176344Y-10532100D01*
X14229086Y-10510253D01*
X14237240Y-10502100D01*
X14465772Y-10502100D01*
X14498209Y-10523774D01*
X14540067Y-10532100D01*
X14568333Y-10532100D01*
X14610191Y-10523774D01*
X14657658Y-10492058D01*
X14689374Y-10444591D01*
X14696985Y-10406328D01*
X14855152Y-10248161D01*
X14864629Y-10241829D01*
X14889715Y-10204286D01*
X14891130Y-10197171D01*
X14898523Y-10160000D01*
X14896300Y-10148822D01*
X14896300Y-10136028D01*
X14909800Y-10115824D01*
X14933342Y-10151058D01*
X14954827Y-10165413D01*
X14954971Y-10165629D01*
X14964448Y-10171961D01*
X15062440Y-10269953D01*
X15068772Y-10279430D01*
X15106315Y-10304516D01*
X15150601Y-10313325D01*
X15161779Y-10311101D01*
X15192978Y-10311101D01*
X15172700Y-10360056D01*
X15172700Y-10417144D01*
X15194547Y-10469886D01*
X15234914Y-10510253D01*
X15287656Y-10532100D01*
X15344744Y-10532100D01*
X15397486Y-10510253D01*
X15405640Y-10502100D01*
X15453834Y-10502100D01*
X15493355Y-10541621D01*
X15559696Y-10569100D01*
X15631504Y-10569100D01*
X15697845Y-10541621D01*
X15748620Y-10490845D01*
X15776100Y-10424504D01*
X15776100Y-10352696D01*
X15758871Y-10311101D01*
X15763988Y-10311101D01*
X16015439Y-10562552D01*
X16021771Y-10572029D01*
X16045316Y-10587761D01*
X16059314Y-10597115D01*
X16103600Y-10605924D01*
X16114778Y-10603700D01*
X16834560Y-10603700D01*
X16852114Y-10621253D01*
X16904856Y-10643100D01*
X16961944Y-10643100D01*
X17014686Y-10621253D01*
X17055053Y-10580886D01*
X17076900Y-10528144D01*
X17076900Y-10471056D01*
X17055053Y-10418314D01*
X17046900Y-10410160D01*
X17046900Y-10327613D01*
X17243194Y-10131319D01*
X17307448Y-10144100D01*
X17359352Y-10144100D01*
X17436213Y-10128812D01*
X17523373Y-10070573D01*
X17581612Y-9983413D01*
X17602062Y-9880600D01*
X17581612Y-9777787D01*
X17523373Y-9690627D01*
X17436213Y-9632389D01*
X17359352Y-9617100D01*
X17307448Y-9617100D01*
X17230587Y-9632389D01*
X17143427Y-9690627D01*
X17085189Y-9777787D01*
X17064738Y-9880600D01*
X17082681Y-9970806D01*
X16861048Y-10192439D01*
X16851571Y-10198771D01*
X16837100Y-10220429D01*
X16826485Y-10236315D01*
X16817677Y-10280600D01*
X16819900Y-10291779D01*
X16819900Y-10376700D01*
X16150613Y-10376700D01*
X15899162Y-10125249D01*
X15892830Y-10115772D01*
X15855286Y-10090686D01*
X15822179Y-10084101D01*
X15811001Y-10081878D01*
X15799823Y-10084101D01*
X15427337Y-10084101D01*
X15434300Y-10060300D01*
X15434300Y-10020300D01*
X15303500Y-10020300D01*
X15303500Y-10022300D01*
X15278100Y-10022300D01*
X15278100Y-10020300D01*
X15276100Y-10020300D01*
X15276100Y-9994900D01*
X15278100Y-9994900D01*
X15278100Y-9840609D01*
X15255896Y-9828410D01*
X15247618Y-9830163D01*
X15198310Y-9857150D01*
X15164050Y-9899750D01*
X15140258Y-9864142D01*
X15092791Y-9832426D01*
X15036800Y-9821289D01*
X14980809Y-9832426D01*
X14933342Y-9864142D01*
X14909800Y-9899376D01*
X14886258Y-9864142D01*
X14838791Y-9832426D01*
X14826860Y-9830053D01*
X14841813Y-9815100D01*
X15430673Y-9815100D01*
X15415100Y-9852696D01*
X15415100Y-9896704D01*
X15383290Y-9857150D01*
X15333982Y-9830163D01*
X15325704Y-9828410D01*
X15303500Y-9840609D01*
X15303500Y-9994900D01*
X15434300Y-9994900D01*
X15434300Y-9970857D01*
X15442579Y-9990845D01*
X15493355Y-10041621D01*
X15559696Y-10069100D01*
X15631504Y-10069100D01*
X15697845Y-10041621D01*
X15748620Y-9990845D01*
X15776100Y-9924504D01*
X15776100Y-9852696D01*
X15760527Y-9815100D01*
X16111587Y-9815100D01*
X16415100Y-10118613D01*
X16415100Y-10174504D01*
X16442579Y-10240845D01*
X16493355Y-10291621D01*
X16559696Y-10319100D01*
X16631504Y-10319100D01*
X16697845Y-10291621D01*
X16748620Y-10240845D01*
X16776100Y-10174504D01*
X16776100Y-10102696D01*
X16748620Y-10036355D01*
X16697845Y-9985580D01*
X16631504Y-9958100D01*
X16575613Y-9958100D01*
X16390017Y-9772504D01*
X16794209Y-9772504D01*
X16818161Y-9823113D01*
X16859658Y-9860704D01*
X16898496Y-9876790D01*
X16920700Y-9864592D01*
X16920700Y-9750300D01*
X16946100Y-9750300D01*
X16946100Y-9864592D01*
X16968304Y-9876790D01*
X17007142Y-9860704D01*
X17048639Y-9823113D01*
X17072591Y-9772504D01*
X17060463Y-9750300D01*
X16946100Y-9750300D01*
X16920700Y-9750300D01*
X16806337Y-9750300D01*
X16794209Y-9772504D01*
X16390017Y-9772504D01*
X16320209Y-9702696D01*
X16794209Y-9702696D01*
X16806337Y-9724900D01*
X16920700Y-9724900D01*
X16920700Y-9610609D01*
X16946100Y-9610609D01*
X16946100Y-9724900D01*
X17060463Y-9724900D01*
X17072591Y-9702696D01*
X17048639Y-9652087D01*
X17007142Y-9614496D01*
X16968304Y-9598410D01*
X16946100Y-9610609D01*
X16920700Y-9610609D01*
X16898496Y-9598410D01*
X16859658Y-9614496D01*
X16818161Y-9652087D01*
X16794209Y-9702696D01*
X16320209Y-9702696D01*
X16246761Y-9629248D01*
X16240429Y-9619771D01*
X16230345Y-9613033D01*
X16240229Y-9606429D01*
X16246561Y-9596952D01*
X16591213Y-9252300D01*
X16631504Y-9252300D01*
X16697845Y-9224821D01*
X16748620Y-9174045D01*
X16776100Y-9107704D01*
X16776100Y-9035896D01*
X16748620Y-8969555D01*
X16697845Y-8918780D01*
X16631504Y-8891300D01*
X16559696Y-8891300D01*
X16493355Y-8918780D01*
X16442579Y-8969555D01*
X16415100Y-9035896D01*
X16415100Y-9107387D01*
X16111387Y-9411100D01*
X15753982Y-9411100D01*
X15776100Y-9357704D01*
X15776100Y-9285896D01*
X15748620Y-9219555D01*
X15709190Y-9180125D01*
X15711323Y-9169400D01*
X15702515Y-9125115D01*
X15698162Y-9118600D01*
X15677429Y-9087571D01*
X15667952Y-9081239D01*
X15589013Y-9002300D01*
X15631504Y-9002300D01*
X15697845Y-8974821D01*
X15748620Y-8924045D01*
X15776100Y-8857704D01*
X15776100Y-8785896D01*
X15748620Y-8719555D01*
X15697845Y-8668780D01*
X15631504Y-8641300D01*
X15575613Y-8641300D01*
X15497961Y-8563648D01*
X15491629Y-8554171D01*
X15454085Y-8529085D01*
X15420978Y-8522500D01*
X15409800Y-8520277D01*
X15398622Y-8522500D01*
X15380240Y-8522500D01*
X15372086Y-8514347D01*
X15319344Y-8492500D01*
X15262256Y-8492500D01*
X15209514Y-8514347D01*
X15169147Y-8554714D01*
X15147300Y-8607456D01*
X15147300Y-8664544D01*
X15169147Y-8717286D01*
X15209514Y-8757653D01*
X15262256Y-8779500D01*
X15319344Y-8779500D01*
X15371276Y-8757989D01*
X15415100Y-8801813D01*
X15415100Y-8836434D01*
X15411285Y-8833885D01*
X15379673Y-8827597D01*
X15346791Y-8805626D01*
X15304933Y-8797300D01*
X15276667Y-8797300D01*
X15234809Y-8805626D01*
X15187342Y-8837342D01*
X15155626Y-8884809D01*
X15144489Y-8940800D01*
X15155626Y-8996791D01*
X15187342Y-9044258D01*
X15230657Y-9073200D01*
X15187342Y-9102142D01*
X15163800Y-9137376D01*
X15140258Y-9102142D01*
X15092791Y-9070426D01*
X15036800Y-9059289D01*
X14980809Y-9070426D01*
X14933342Y-9102142D01*
X14913325Y-9132100D01*
X14906275Y-9132100D01*
X14886258Y-9102142D01*
X14838791Y-9070426D01*
X14782800Y-9059289D01*
X14726809Y-9070426D01*
X14679342Y-9102142D01*
X14655800Y-9137376D01*
X14642300Y-9117172D01*
X14642300Y-9030240D01*
X14650453Y-9022086D01*
X14671473Y-8971340D01*
X15172713Y-8470100D01*
X16524387Y-8470100D01*
X17082681Y-9028394D01*
X17064738Y-9118600D01*
X17085189Y-9221413D01*
X17143427Y-9308573D01*
X17230587Y-9366812D01*
X17307448Y-9382100D01*
X17359352Y-9382100D01*
X17436213Y-9366812D01*
X17523373Y-9308573D01*
X17581612Y-9221413D01*
X17602062Y-9118600D01*
X17581612Y-9015787D01*
X17523373Y-8928627D01*
X17436213Y-8870389D01*
X17359352Y-8855100D01*
X17307448Y-8855100D01*
X17243194Y-8867881D01*
X16701313Y-8326000D01*
X17632800Y-8326000D01*
X17632800Y-10673200D01*
X12923400Y-10673200D01*
X12923400Y-9553316D01*
X12975433Y-9553316D01*
X13015626Y-9647947D01*
X13088973Y-9719994D01*
X13179684Y-9757567D01*
X13220700Y-9746899D01*
X13220700Y-9512300D01*
X13246100Y-9512300D01*
X13246100Y-9746899D01*
X13287116Y-9757567D01*
X13377827Y-9719994D01*
X13451174Y-9647947D01*
X13491367Y-9553316D01*
X13480719Y-9512300D01*
X13246100Y-9512300D01*
X13220700Y-9512300D01*
X12986081Y-9512300D01*
X12975433Y-9553316D01*
X12923400Y-9553316D01*
X12923400Y-9445884D01*
X12975433Y-9445884D01*
X12986081Y-9486900D01*
X13220700Y-9486900D01*
X13220700Y-9252301D01*
X13246100Y-9252301D01*
X13246100Y-9486900D01*
X13480719Y-9486900D01*
X13491367Y-9445884D01*
X13451174Y-9351253D01*
X13377827Y-9279206D01*
X13287116Y-9241633D01*
X13246100Y-9252301D01*
X13220700Y-9252301D01*
X13179684Y-9241633D01*
X13088973Y-9279206D01*
X13015626Y-9351253D01*
X12975433Y-9445884D01*
X12923400Y-9445884D01*
X12923400Y-8326000D01*
X14995787Y-8326000D01*
X14661924Y-8659863D01*
X14661924Y-8659863D01*
G37*
X14661924Y-8659863D02*
X14655791Y-8648700D01*
X14541500Y-8648700D01*
X14541500Y-8763063D01*
X14552639Y-8769148D01*
X14524487Y-8797300D01*
X14500256Y-8797300D01*
X14447514Y-8819147D01*
X14407147Y-8859514D01*
X14385300Y-8912256D01*
X14385300Y-8969344D01*
X14407147Y-9022086D01*
X14415300Y-9030240D01*
X14415300Y-9117172D01*
X14405325Y-9132100D01*
X14034040Y-9132100D01*
X14025886Y-9123947D01*
X13973144Y-9102100D01*
X13916056Y-9102100D01*
X13863314Y-9123947D01*
X13855160Y-9132100D01*
X13788413Y-9132100D01*
X13502688Y-8846375D01*
X13861786Y-8846375D01*
X13869199Y-8870986D01*
X13922922Y-8890297D01*
X13979945Y-8887578D01*
X14020000Y-8870986D01*
X14027414Y-8846375D01*
X13944600Y-8763561D01*
X13861786Y-8846375D01*
X13502688Y-8846375D01*
X13484119Y-8827806D01*
X13502062Y-8737600D01*
X13499342Y-8723922D01*
X13799903Y-8723922D01*
X13802622Y-8780945D01*
X13819214Y-8821001D01*
X13843825Y-8828414D01*
X13926639Y-8745600D01*
X13962560Y-8745600D01*
X14045374Y-8828414D01*
X14069986Y-8821001D01*
X14089296Y-8767278D01*
X14086578Y-8710255D01*
X14070278Y-8670904D01*
X14389610Y-8670904D01*
X14405696Y-8709742D01*
X14443287Y-8751239D01*
X14493896Y-8775191D01*
X14516100Y-8763063D01*
X14516100Y-8648700D01*
X14401808Y-8648700D01*
X14389610Y-8670904D01*
X14070278Y-8670904D01*
X14069986Y-8670200D01*
X14045374Y-8662786D01*
X13962560Y-8745600D01*
X13926639Y-8745600D01*
X13843825Y-8662786D01*
X13819214Y-8670200D01*
X13799903Y-8723922D01*
X13499342Y-8723922D01*
X13483608Y-8644826D01*
X13861786Y-8644826D01*
X13944600Y-8727640D01*
X14027414Y-8644826D01*
X14020000Y-8620214D01*
X13966814Y-8601096D01*
X14389610Y-8601096D01*
X14401808Y-8623300D01*
X14516100Y-8623300D01*
X14516100Y-8508937D01*
X14541500Y-8508937D01*
X14541500Y-8623300D01*
X14655791Y-8623300D01*
X14667990Y-8601096D01*
X14651904Y-8562258D01*
X14614313Y-8520761D01*
X14563704Y-8496809D01*
X14541500Y-8508937D01*
X14516100Y-8508937D01*
X14493896Y-8496809D01*
X14443287Y-8520761D01*
X14405696Y-8562258D01*
X14389610Y-8601096D01*
X13966814Y-8601096D01*
X13966278Y-8600904D01*
X13909255Y-8603622D01*
X13869199Y-8620214D01*
X13861786Y-8644826D01*
X13483608Y-8644826D01*
X13481611Y-8634787D01*
X13423373Y-8547627D01*
X13336213Y-8489389D01*
X13259352Y-8474100D01*
X13207448Y-8474100D01*
X13130587Y-8489389D01*
X13043427Y-8547627D01*
X12985188Y-8634787D01*
X12964738Y-8737600D01*
X12985188Y-8840413D01*
X13043427Y-8927573D01*
X13130587Y-8985812D01*
X13207448Y-9001100D01*
X13259352Y-9001100D01*
X13323606Y-8988319D01*
X13653239Y-9317952D01*
X13659571Y-9327429D01*
X13695226Y-9351253D01*
X13697114Y-9352515D01*
X13741400Y-9361324D01*
X13752578Y-9359100D01*
X13855160Y-9359100D01*
X13863314Y-9367253D01*
X13916056Y-9389100D01*
X13973144Y-9389100D01*
X14025886Y-9367253D01*
X14034040Y-9359100D01*
X14405325Y-9359100D01*
X14425342Y-9389058D01*
X14472809Y-9420774D01*
X14528800Y-9431911D01*
X14584791Y-9420774D01*
X14632258Y-9389058D01*
X14655800Y-9353824D01*
X14660952Y-9361535D01*
X14509387Y-9513100D01*
X14236228Y-9513100D01*
X14203791Y-9491426D01*
X14161933Y-9483100D01*
X14133667Y-9483100D01*
X14091809Y-9491426D01*
X14044342Y-9523142D01*
X14012626Y-9570609D01*
X14001489Y-9626600D01*
X14012626Y-9682591D01*
X14044342Y-9730058D01*
X14091809Y-9761774D01*
X14133667Y-9770100D01*
X14161933Y-9770100D01*
X14203791Y-9761774D01*
X14236228Y-9740100D01*
X14545222Y-9740100D01*
X14556400Y-9742324D01*
X14567578Y-9740100D01*
X14600685Y-9733515D01*
X14605769Y-9730118D01*
X14513031Y-9822856D01*
X14448800Y-9822856D01*
X14424023Y-9827784D01*
X14403019Y-9841819D01*
X14388984Y-9862824D01*
X14384056Y-9887600D01*
X14384056Y-9894100D01*
X14067813Y-9894100D01*
X13935700Y-9761987D01*
X13935700Y-9750456D01*
X13913853Y-9697714D01*
X13873486Y-9657347D01*
X13820744Y-9635500D01*
X13763656Y-9635500D01*
X13710914Y-9657347D01*
X13670547Y-9697714D01*
X13648700Y-9750456D01*
X13648700Y-9761987D01*
X13372831Y-10037856D01*
X13336213Y-10013389D01*
X13259352Y-9998100D01*
X13207448Y-9998100D01*
X13130587Y-10013389D01*
X13043427Y-10071627D01*
X12985188Y-10158787D01*
X12964738Y-10261600D01*
X12985188Y-10364413D01*
X13043427Y-10451573D01*
X13130587Y-10509812D01*
X13207448Y-10525100D01*
X13259352Y-10525100D01*
X13336213Y-10509812D01*
X13423373Y-10451573D01*
X13481611Y-10364413D01*
X13502062Y-10261600D01*
X13496761Y-10234952D01*
X13792200Y-9939513D01*
X13932639Y-10079952D01*
X13938971Y-10089429D01*
X13976116Y-10114248D01*
X13976514Y-10114515D01*
X14020800Y-10123324D01*
X14031978Y-10121100D01*
X14384056Y-10121100D01*
X14384056Y-10127600D01*
X14388984Y-10152377D01*
X14403019Y-10173381D01*
X14424023Y-10187416D01*
X14448800Y-10192344D01*
X14589943Y-10192344D01*
X14536472Y-10245815D01*
X14498209Y-10253426D01*
X14465772Y-10275100D01*
X14237240Y-10275100D01*
X14229086Y-10266947D01*
X14176344Y-10245100D01*
X14119256Y-10245100D01*
X14066514Y-10266947D01*
X14058360Y-10275100D01*
X13948813Y-10275100D01*
X13935700Y-10261987D01*
X13935700Y-10250456D01*
X13913853Y-10197714D01*
X13873486Y-10157347D01*
X13820744Y-10135500D01*
X13763656Y-10135500D01*
X13710914Y-10157347D01*
X13670547Y-10197714D01*
X13648700Y-10250456D01*
X13648700Y-10307544D01*
X13670547Y-10360286D01*
X13710914Y-10400653D01*
X13763656Y-10422500D01*
X13775187Y-10422500D01*
X13813639Y-10460952D01*
X13819971Y-10470429D01*
X13850526Y-10490845D01*
X13857514Y-10495515D01*
X13901800Y-10504324D01*
X13912978Y-10502100D01*
X14058360Y-10502100D01*
X14066514Y-10510253D01*
X14119256Y-10532100D01*
X14176344Y-10532100D01*
X14229086Y-10510253D01*
X14237240Y-10502100D01*
X14465772Y-10502100D01*
X14498209Y-10523774D01*
X14540067Y-10532100D01*
X14568333Y-10532100D01*
X14610191Y-10523774D01*
X14657658Y-10492058D01*
X14689374Y-10444591D01*
X14696985Y-10406328D01*
X14855152Y-10248161D01*
X14864629Y-10241829D01*
X14889715Y-10204286D01*
X14891130Y-10197171D01*
X14898523Y-10160000D01*
X14896300Y-10148822D01*
X14896300Y-10136028D01*
X14909800Y-10115824D01*
X14933342Y-10151058D01*
X14954827Y-10165413D01*
X14954971Y-10165629D01*
X14964448Y-10171961D01*
X15062440Y-10269953D01*
X15068772Y-10279430D01*
X15106315Y-10304516D01*
X15150601Y-10313325D01*
X15161779Y-10311101D01*
X15192978Y-10311101D01*
X15172700Y-10360056D01*
X15172700Y-10417144D01*
X15194547Y-10469886D01*
X15234914Y-10510253D01*
X15287656Y-10532100D01*
X15344744Y-10532100D01*
X15397486Y-10510253D01*
X15405640Y-10502100D01*
X15453834Y-10502100D01*
X15493355Y-10541621D01*
X15559696Y-10569100D01*
X15631504Y-10569100D01*
X15697845Y-10541621D01*
X15748620Y-10490845D01*
X15776100Y-10424504D01*
X15776100Y-10352696D01*
X15758871Y-10311101D01*
X15763988Y-10311101D01*
X16015439Y-10562552D01*
X16021771Y-10572029D01*
X16045316Y-10587761D01*
X16059314Y-10597115D01*
X16103600Y-10605924D01*
X16114778Y-10603700D01*
X16834560Y-10603700D01*
X16852114Y-10621253D01*
X16904856Y-10643100D01*
X16961944Y-10643100D01*
X17014686Y-10621253D01*
X17055053Y-10580886D01*
X17076900Y-10528144D01*
X17076900Y-10471056D01*
X17055053Y-10418314D01*
X17046900Y-10410160D01*
X17046900Y-10327613D01*
X17243194Y-10131319D01*
X17307448Y-10144100D01*
X17359352Y-10144100D01*
X17436213Y-10128812D01*
X17523373Y-10070573D01*
X17581612Y-9983413D01*
X17602062Y-9880600D01*
X17581612Y-9777787D01*
X17523373Y-9690627D01*
X17436213Y-9632389D01*
X17359352Y-9617100D01*
X17307448Y-9617100D01*
X17230587Y-9632389D01*
X17143427Y-9690627D01*
X17085189Y-9777787D01*
X17064738Y-9880600D01*
X17082681Y-9970806D01*
X16861048Y-10192439D01*
X16851571Y-10198771D01*
X16837100Y-10220429D01*
X16826485Y-10236315D01*
X16817677Y-10280600D01*
X16819900Y-10291779D01*
X16819900Y-10376700D01*
X16150613Y-10376700D01*
X15899162Y-10125249D01*
X15892830Y-10115772D01*
X15855286Y-10090686D01*
X15822179Y-10084101D01*
X15811001Y-10081878D01*
X15799823Y-10084101D01*
X15427337Y-10084101D01*
X15434300Y-10060300D01*
X15434300Y-10020300D01*
X15303500Y-10020300D01*
X15303500Y-10022300D01*
X15278100Y-10022300D01*
X15278100Y-10020300D01*
X15276100Y-10020300D01*
X15276100Y-9994900D01*
X15278100Y-9994900D01*
X15278100Y-9840609D01*
X15255896Y-9828410D01*
X15247618Y-9830163D01*
X15198310Y-9857150D01*
X15164050Y-9899750D01*
X15140258Y-9864142D01*
X15092791Y-9832426D01*
X15036800Y-9821289D01*
X14980809Y-9832426D01*
X14933342Y-9864142D01*
X14909800Y-9899376D01*
X14886258Y-9864142D01*
X14838791Y-9832426D01*
X14826860Y-9830053D01*
X14841813Y-9815100D01*
X15430673Y-9815100D01*
X15415100Y-9852696D01*
X15415100Y-9896704D01*
X15383290Y-9857150D01*
X15333982Y-9830163D01*
X15325704Y-9828410D01*
X15303500Y-9840609D01*
X15303500Y-9994900D01*
X15434300Y-9994900D01*
X15434300Y-9970857D01*
X15442579Y-9990845D01*
X15493355Y-10041621D01*
X15559696Y-10069100D01*
X15631504Y-10069100D01*
X15697845Y-10041621D01*
X15748620Y-9990845D01*
X15776100Y-9924504D01*
X15776100Y-9852696D01*
X15760527Y-9815100D01*
X16111587Y-9815100D01*
X16415100Y-10118613D01*
X16415100Y-10174504D01*
X16442579Y-10240845D01*
X16493355Y-10291621D01*
X16559696Y-10319100D01*
X16631504Y-10319100D01*
X16697845Y-10291621D01*
X16748620Y-10240845D01*
X16776100Y-10174504D01*
X16776100Y-10102696D01*
X16748620Y-10036355D01*
X16697845Y-9985580D01*
X16631504Y-9958100D01*
X16575613Y-9958100D01*
X16390017Y-9772504D01*
X16794209Y-9772504D01*
X16818161Y-9823113D01*
X16859658Y-9860704D01*
X16898496Y-9876790D01*
X16920700Y-9864592D01*
X16920700Y-9750300D01*
X16946100Y-9750300D01*
X16946100Y-9864592D01*
X16968304Y-9876790D01*
X17007142Y-9860704D01*
X17048639Y-9823113D01*
X17072591Y-9772504D01*
X17060463Y-9750300D01*
X16946100Y-9750300D01*
X16920700Y-9750300D01*
X16806337Y-9750300D01*
X16794209Y-9772504D01*
X16390017Y-9772504D01*
X16320209Y-9702696D01*
X16794209Y-9702696D01*
X16806337Y-9724900D01*
X16920700Y-9724900D01*
X16920700Y-9610609D01*
X16946100Y-9610609D01*
X16946100Y-9724900D01*
X17060463Y-9724900D01*
X17072591Y-9702696D01*
X17048639Y-9652087D01*
X17007142Y-9614496D01*
X16968304Y-9598410D01*
X16946100Y-9610609D01*
X16920700Y-9610609D01*
X16898496Y-9598410D01*
X16859658Y-9614496D01*
X16818161Y-9652087D01*
X16794209Y-9702696D01*
X16320209Y-9702696D01*
X16246761Y-9629248D01*
X16240429Y-9619771D01*
X16230345Y-9613033D01*
X16240229Y-9606429D01*
X16246561Y-9596952D01*
X16591213Y-9252300D01*
X16631504Y-9252300D01*
X16697845Y-9224821D01*
X16748620Y-9174045D01*
X16776100Y-9107704D01*
X16776100Y-9035896D01*
X16748620Y-8969555D01*
X16697845Y-8918780D01*
X16631504Y-8891300D01*
X16559696Y-8891300D01*
X16493355Y-8918780D01*
X16442579Y-8969555D01*
X16415100Y-9035896D01*
X16415100Y-9107387D01*
X16111387Y-9411100D01*
X15753982Y-9411100D01*
X15776100Y-9357704D01*
X15776100Y-9285896D01*
X15748620Y-9219555D01*
X15709190Y-9180125D01*
X15711323Y-9169400D01*
X15702515Y-9125115D01*
X15698162Y-9118600D01*
X15677429Y-9087571D01*
X15667952Y-9081239D01*
X15589013Y-9002300D01*
X15631504Y-9002300D01*
X15697845Y-8974821D01*
X15748620Y-8924045D01*
X15776100Y-8857704D01*
X15776100Y-8785896D01*
X15748620Y-8719555D01*
X15697845Y-8668780D01*
X15631504Y-8641300D01*
X15575613Y-8641300D01*
X15497961Y-8563648D01*
X15491629Y-8554171D01*
X15454085Y-8529085D01*
X15420978Y-8522500D01*
X15409800Y-8520277D01*
X15398622Y-8522500D01*
X15380240Y-8522500D01*
X15372086Y-8514347D01*
X15319344Y-8492500D01*
X15262256Y-8492500D01*
X15209514Y-8514347D01*
X15169147Y-8554714D01*
X15147300Y-8607456D01*
X15147300Y-8664544D01*
X15169147Y-8717286D01*
X15209514Y-8757653D01*
X15262256Y-8779500D01*
X15319344Y-8779500D01*
X15371276Y-8757989D01*
X15415100Y-8801813D01*
X15415100Y-8836434D01*
X15411285Y-8833885D01*
X15379673Y-8827597D01*
X15346791Y-8805626D01*
X15304933Y-8797300D01*
X15276667Y-8797300D01*
X15234809Y-8805626D01*
X15187342Y-8837342D01*
X15155626Y-8884809D01*
X15144489Y-8940800D01*
X15155626Y-8996791D01*
X15187342Y-9044258D01*
X15230657Y-9073200D01*
X15187342Y-9102142D01*
X15163800Y-9137376D01*
X15140258Y-9102142D01*
X15092791Y-9070426D01*
X15036800Y-9059289D01*
X14980809Y-9070426D01*
X14933342Y-9102142D01*
X14913325Y-9132100D01*
X14906275Y-9132100D01*
X14886258Y-9102142D01*
X14838791Y-9070426D01*
X14782800Y-9059289D01*
X14726809Y-9070426D01*
X14679342Y-9102142D01*
X14655800Y-9137376D01*
X14642300Y-9117172D01*
X14642300Y-9030240D01*
X14650453Y-9022086D01*
X14671473Y-8971340D01*
X15172713Y-8470100D01*
X16524387Y-8470100D01*
X17082681Y-9028394D01*
X17064738Y-9118600D01*
X17085189Y-9221413D01*
X17143427Y-9308573D01*
X17230587Y-9366812D01*
X17307448Y-9382100D01*
X17359352Y-9382100D01*
X17436213Y-9366812D01*
X17523373Y-9308573D01*
X17581612Y-9221413D01*
X17602062Y-9118600D01*
X17581612Y-9015787D01*
X17523373Y-8928627D01*
X17436213Y-8870389D01*
X17359352Y-8855100D01*
X17307448Y-8855100D01*
X17243194Y-8867881D01*
X16701313Y-8326000D01*
X17632800Y-8326000D01*
X17632800Y-10673200D01*
X12923400Y-10673200D01*
X12923400Y-9553316D01*
X12975433Y-9553316D01*
X13015626Y-9647947D01*
X13088973Y-9719994D01*
X13179684Y-9757567D01*
X13220700Y-9746899D01*
X13220700Y-9512300D01*
X13246100Y-9512300D01*
X13246100Y-9746899D01*
X13287116Y-9757567D01*
X13377827Y-9719994D01*
X13451174Y-9647947D01*
X13491367Y-9553316D01*
X13480719Y-9512300D01*
X13246100Y-9512300D01*
X13220700Y-9512300D01*
X12986081Y-9512300D01*
X12975433Y-9553316D01*
X12923400Y-9553316D01*
X12923400Y-9445884D01*
X12975433Y-9445884D01*
X12986081Y-9486900D01*
X13220700Y-9486900D01*
X13220700Y-9252301D01*
X13246100Y-9252301D01*
X13246100Y-9486900D01*
X13480719Y-9486900D01*
X13491367Y-9445884D01*
X13451174Y-9351253D01*
X13377827Y-9279206D01*
X13287116Y-9241633D01*
X13246100Y-9252301D01*
X13220700Y-9252301D01*
X13179684Y-9241633D01*
X13088973Y-9279206D01*
X13015626Y-9351253D01*
X12975433Y-9445884D01*
X12923400Y-9445884D01*
X12923400Y-8326000D01*
X14995787Y-8326000D01*
X14661924Y-8659863D01*
G04 #@! TD*
M02*
