  0
SECTION
  2
HEADER
  9
$ACADVER
  1
AC1014
  9
$HANDSEED
  5
FFFF
  9
$MEASUREMENT
 70
     1
  0
ENDSEC
  0
SECTION
  2
TABLES
  0
TABLE
  2
VPORT
  5
8
330
0
100
AcDbSymbolTable
 70
     4
  0
VPORT
  5
2E
330
8
100
AcDbSymbolTableRecord
100
AcDbViewportTableRecord
  2
*ACTIVE
 70
     0
 10
0.0
 20
0.0
 11
1.0
 21
1.0
 12
210.0
 22
148.5
 13
0.0
 23
0.0
 14
10.0
 24
10.0
 15
10.0
 25
10.0
 16
0.0
 26
0.0
 36
1.0
 17
0.0
 27
0.0
 37
0.0
 40
341.0
 41
1.24
 42
50.0
 43
0.0
 44
0.0
 50
0.0
 51
0.0
 71
     0
 72
   100
 73
     1
 74
     3
 75
     0
 76
     0
 77
     0
 78
     0
  0
ENDTAB
  0
TABLE
  2
LTYPE
  5
5
330
0
100
AcDbSymbolTable
 70
     1
  0
LTYPE
  5
14
330
5
100
AcDbSymbolTableRecord
100
AcDbLinetypeTableRecord
  2
BYBLOCK
 70
     0
  3

 72
    65
 73
     0
 40
0.0
  0
LTYPE
  5
15
330
5
100
AcDbSymbolTableRecord
100
AcDbLinetypeTableRecord
  2
BYLAYER
 70
     0
  3

 72
    65
 73
     0
 40
0.0
  0
LTYPE
  5
16
330
5
100
AcDbSymbolTableRecord
100
AcDbLinetypeTableRecord
  2
CONTINUOUS
 70
     0
  3
Solid line
 72
    65
 73
     0
 40
0.0
  0
ENDTAB
  0
TABLE
  2
LAYER
  5
2
100
AcDbSymbolTable
 70
2
  0
LAYER
  5
50
100
AcDbSymbolTableRecord
100
AcDbLayerTableRecord
  2
0
 70
0
  6
CONTINUOUS
  0
LAYER
  5
51
100
AcDbSymbolTableRecord
100
AcDbLayerTableRecord
  2
Calque_1
 70
0
  6
CONTINUOUS
  0
ENDTAB
  0
TABLE
  2
STYLE
  5
3
330
0
100
AcDbSymbolTable
 70
     1
  0
STYLE
  5
11
330
3
100
AcDbSymbolTableRecord
100
AcDbTextStyleTableRecord
  2
STANDARD
 70
     0
 40
0.0
 41
1.0
 50
0.0
 71
     0
 42
2.5
  3
txt
  4

  0
ENDTAB
  0
TABLE
  2
VIEW
  5
6
330
0
100
AcDbSymbolTable
 70
     0
  0
ENDTAB
  0
TABLE
  2
UCS
  5
7
330
0
100
AcDbSymbolTable
 70
     0
  0
ENDTAB
  0
TABLE
  2
APPID
  5
9
330
0
100
AcDbSymbolTable
 70
     2
  0
APPID
  5
12
330
9
100
AcDbSymbolTableRecord
100
AcDbRegAppTableRecord
  2
ACAD
 70
     0
  0
ENDTAB
  0
TABLE
  2
DIMSTYLE
  5
A
330
0
100
AcDbSymbolTable
 70
     1
  0
DIMSTYLE
105
27
330
A
100
AcDbSymbolTableRecord
100
AcDbDimStyleTableRecord
  2
ISO-25
 70
     0
  3

  4

  5

  6

  7

 40
1.0
 41
2.5
 42
0.625
 43
3.75
 44
1.25
 45
0.0
 46
0.0
 47
0.0
 48
0.0
140
2.5
141
2.5
142
0.0
143
0.03937007874016
144
1.0
145
0.0
146
1.0
147
0.625
 71
     0
 72
     0
 73
     0
 74
     0
 75
     0
 76
     0
 77
     1
 78
     8
170
     0
171
     3
172
     1
173
     0
174
     0
175
     0
176
     0
177
     0
178
     0
270
     2
271
     2
272
     2
273
     2
274
     3
340
11
275
     0
280
     0
281
     0
282
     0
283
     0
284
     8
285
     0
286
     0
287
     3
288
     0
  0
ENDTAB
  0
TABLE
  2
BLOCK_RECORD
  5
1
330
0
100
AcDbSymbolTable
 70
     1
  0
BLOCK_RECORD
  5
1F
330
1
100
AcDbSymbolTableRecord
100
AcDbBlockTableRecord
  2
*MODEL_SPACE
  0
BLOCK_RECORD
  5
1B
330
1
100
AcDbSymbolTableRecord
100
AcDbBlockTableRecord
  2
*PAPER_SPACE
  0
ENDTAB
  0
ENDSEC
  0
SECTION
  2
BLOCKS
  0
BLOCK
  5
20
330
1F
100
AcDbEntity
  8
0
100
AcDbBlockBegin
  2
*MODEL_SPACE
 70
     0
 10
0.0
 20
0.0
 30
0.0
  3
*MODEL_SPACE
  1

  0
ENDBLK
  5
21
330
1F
100
AcDbEntity
  8
0
100
AcDbBlockEnd
  0
BLOCK
  5
1C
330
1B
100
AcDbEntity
 67
     1
  8
0
100
AcDbBlockBegin
  2
*PAPER_SPACE
  1

  0
ENDBLK
  5
1D
330
1B
100
AcDbEntity
 67
     1
  8
0
100
AcDbBlockEnd
  0
ENDSEC
  0
SECTION
  2
ENTITIES
  0
SPLINE
  5
100
100
AcDbEntity
  8
Calque_1
 62
7
100
AcDbSpline
 70
8
 71
3
 72
8
 73
4
 74
0
 40
0
 40
0
 40
0
 40
0
 40
1
 40
1
 40
1
 40
1
 10
7.217028
 20
10.217290
 30
0.0
 10
7.217028
 20
9.882470
 30
0.0
 10
7.217028
 20
9.547660
 30
0.0
 10
7.217028
 20
9.212840
 30
0.0
  0
LWPOLYLINE
  5
101
100
AcDbEntity
  8
Calque_1
 62
7
100
AcDbPolyline
 90
64
 70
1
 10
8.084075
 20
9.715050
 30
0.0
 10
8.079575
 20
9.630150
 30
0.0
 10
8.066375
 20
9.547650
 30
0.0
 10
8.044910
 20
9.468050
 30
0.0
 10
8.015618
 20
9.391750
 30
0.0
 10
7.978936
 20
9.319150
 30
0.0
 10
7.935303
 20
9.250650
 30
0.0
 10
7.885157
 20
9.186750
 30
0.0
 10
7.828934
 20
9.127750
 30
0.0
 10
7.767074
 20
9.074150
 30
0.0
 10
7.700013
 20
9.026350
 30
0.0
 10
7.628191
 20
8.984750
 30
0.0
 10
7.552044
 20
8.949750
 30
0.0
 10
7.472011
 20
8.921850
 30
0.0
 10
7.388529
 20
8.901350
 30
0.0
 10
7.302037
 20
8.888750
 30
0.0
 10
7.212972
 20
8.884750
 30
0.0
 10
7.123907
 20
8.888750
 30
0.0
 10
7.037415
 20
8.901350
 30
0.0
 10
6.953933
 20
8.921850
 30
0.0
 10
6.873900
 20
8.949750
 30
0.0
 10
6.797753
 20
8.984750
 30
0.0
 10
6.725931
 20
9.026350
 30
0.0
 10
6.658871
 20
9.074150
 30
0.0
 10
6.597011
 20
9.127750
 30
0.0
 10
6.540788
 20
9.186750
 30
0.0
 10
6.490642
 20
9.250650
 30
0.0
 10
6.447009
 20
9.319150
 30
0.0
 10
6.410327
 20
9.391750
 30
0.0
 10
6.381035
 20
9.468050
 30
0.0
 10
6.359570
 20
9.547650
 30
0.0
 10
6.346370
 20
9.630150
 30
0.0
 10
6.341870
 20
9.715050
 30
0.0
 10
6.346370
 20
9.799950
 30
0.0
 10
6.359571
 20
9.882450
 30
0.0
 10
6.381037
 20
9.962050
 30
0.0
 10
6.410330
 20
10.038350
 30
0.0
 10
6.447012
 20
10.110950
 30
0.0
 10
6.490645
 20
10.179450
 30
0.0
 10
6.540792
 20
10.243450
 30
0.0
 10
6.597015
 20
10.302450
 30
0.0
 10
6.658875
 20
10.356050
 30
0.0
 10
6.725935
 20
10.403850
 30
0.0
 10
6.797757
 20
10.445450
 30
0.0
 10
6.873903
 20
10.480450
 30
0.0
 10
6.953935
 20
10.508350
 30
0.0
 10
7.037416
 20
10.528850
 30
0.0
 10
7.123908
 20
10.541450
 30
0.0
 10
7.212972
 20
10.545450
 30
0.0
 10
7.302036
 20
10.541450
 30
0.0
 10
7.388528
 20
10.528850
 30
0.0
 10
7.472009
 20
10.508350
 30
0.0
 10
7.552041
 20
10.480450
 30
0.0
 10
7.628187
 20
10.445450
 30
0.0
 10
7.700009
 20
10.403850
 30
0.0
 10
7.767069
 20
10.356050
 30
0.0
 10
7.828929
 20
10.302450
 30
0.0
 10
7.885152
 20
10.243450
 30
0.0
 10
7.935299
 20
10.179450
 30
0.0
 10
7.978932
 20
10.110950
 30
0.0
 10
8.015614
 20
10.038350
 30
0.0
 10
8.044907
 20
9.962050
 30
0.0
 10
8.066373
 20
9.882450
 30
0.0
 10
8.079574
 20
9.799950
 30
0.0
  0
LWPOLYLINE
  5
102
100
AcDbEntity
  8
Calque_1
 62
7
100
AcDbPolyline
 90
2
 70
0
 10
7.743741
 20
9.715060
 30
0.0
 10
6.690315
 20
9.715060
 30
0.0
  0
LWPOLYLINE
  5
103
100
AcDbEntity
  8
Calque_1
 62
7
100
AcDbPolyline
 90
65
 70
1
 10
13.738866
 20
9.715050
 30
0.0
 10
13.734366
 20
9.630150
 30
0.0
 10
13.721166
 20
9.547650
 30
0.0
 10
13.699706
 20
9.468050
 30
0.0
 10
13.670416
 20
9.391750
 30
0.0
 10
13.633736
 20
9.319150
 30
0.0
 10
13.590106
 20
9.250650
 30
0.0
 10
13.539956
 20
9.186750
 30
0.0
 10
13.483736
 20
9.127750
 30
0.0
 10
13.421876
 20
9.074150
 30
0.0
 10
13.354816
 20
9.026350
 30
0.0
 10
13.282996
 20
8.984750
 30
0.0
 10
13.206846
 20
8.949750
 30
0.0
 10
13.126806
 20
8.921850
 30
0.0
 10
13.043326
 20
8.901350
 30
0.0
 10
12.956836
 20
8.888750
 30
0.0
 10
12.867776
 20
8.884750
 30
0.0
 10
12.778716
 20
8.888750
 30
0.0
 10
12.692226
 20
8.901350
 30
0.0
 10
12.608746
 20
8.921850
 30
0.0
 10
12.528706
 20
8.949750
 30
0.0
 10
12.452556
 20
8.984750
 30
0.0
 10
12.380736
 20
9.026350
 30
0.0
 10
12.313676
 20
9.074150
 30
0.0
 10
12.251826
 20
9.127750
 30
0.0
 10
12.195606
 20
9.186750
 30
0.0
 10
12.145456
 20
9.250650
 30
0.0
 10
12.101826
 20
9.319150
 30
0.0
 10
12.065146
 20
9.391750
 30
0.0
 10
12.035856
 20
9.468050
 30
0.0
 10
12.014386
 20
9.547650
 30
0.0
 10
12.001186
 20
9.630150
 30
0.0
 10
11.996686
 20
9.715050
 30
0.0
 10
12.001186
 20
9.799950
 30
0.0
 10
12.014386
 20
9.882450
 30
0.0
 10
12.035856
 20
9.962050
 30
0.0
 10
12.065146
 20
10.038350
 30
0.0
 10
12.101836
 20
10.110950
 30
0.0
 10
12.145466
 20
10.179450
 30
0.0
 10
12.195616
 20
10.243450
 30
0.0
 10
12.251836
 20
10.302450
 30
0.0
 10
12.313696
 20
10.356050
 30
0.0
 10
12.380756
 20
10.403850
 30
0.0
 10
12.452576
 20
10.445450
 30
0.0
 10
12.528726
 20
10.480450
 30
0.0
 10
12.608756
 20
10.508350
 30
0.0
 10
12.692236
 20
10.528850
 30
0.0
 10
12.778726
 20
10.541450
 30
0.0
 10
12.867786
 20
10.545450
 30
0.0
 10
12.956846
 20
10.541450
 30
0.0
 10
13.043336
 20
10.528850
 30
0.0
 10
13.126816
 20
10.508350
 30
0.0
 10
13.206846
 20
10.480450
 30
0.0
 10
13.282996
 20
10.445450
 30
0.0
 10
13.354816
 20
10.403850
 30
0.0
 10
13.421876
 20
10.356050
 30
0.0
 10
13.483736
 20
10.302450
 30
0.0
 10
13.539956
 20
10.243450
 30
0.0
 10
13.590106
 20
10.179450
 30
0.0
 10
13.633736
 20
10.110950
 30
0.0
 10
13.670426
 20
10.038350
 30
0.0
 10
13.699716
 20
9.962050
 30
0.0
 10
13.721186
 20
9.882450
 30
0.0
 10
13.734386
 20
9.799950
 30
0.0
 10
13.738886
 20
9.715050
 30
0.0
  0
LWPOLYLINE
  5
104
100
AcDbEntity
  8
Calque_1
 62
7
100
AcDbPolyline
 90
2
 70
0
 10
13.381927
 20
9.715060
 30
0.0
 10
12.328502
 20
9.715060
 30
0.0
  0
LWPOLYLINE
  5
105
100
AcDbEntity
  8
Calque_1
 62
7
100
AcDbPolyline
 90
4
 70
1
 10
1.747422
 20
17.384340
 30
0.0
 10
1.747422
 20
17.384340
 30
0.0
 10
1.747422
 20
1.127702
 30
0.0
 10
1.747422
 20
1.127702
 30
0.0
  0
ENDSEC
  0
SECTION
  2
OBJECTS
  0
DICTIONARY
  5
C
330
0
100
AcDbDictionary
  3
ACAD_GROUP
350
D
  3
ACAD_MLINESTYLE
350
17
  0
DICTIONARY
  5
D
330
C
100
AcDbDictionary
  0
DICTIONARY
  5
1A
330
C
100
AcDbDictionary
  0
DICTIONARY
  5
17
330
C
100
AcDbDictionary
  3
STANDARD
350
18
  0
DICTIONARY
  5
19
330
C
100
AcDbDictionary
  0
ENDSEC
  0
EOF
